<?xml version="1.0" encoding="utf-8" ?>
<svg xmlns="http://www.w3.org/2000/svg" xmlns:xlink="http://www.w3.org/1999/xlink" width="1080" height="1080">
	<path fill="#012630" d="M368.397 4.92595C410.534 3.35845 444.973 12.6937 484.312 26.819C491.024 29.1676 497.644 31.7686 504.159 34.6165C511.779 37.9451 519.69 42.2422 527.864 43.9293C530.869 44.5494 533.908 44.4054 536.954 44.327C543.644 44.1546 550.423 45.3535 557.058 46.1568C585.325 49.5789 614.178 55.2757 640.187 67.2848C651.057 72.3035 660.785 79.4361 671.601 84.3109C677.929 87.1631 684.778 89.1256 691.272 91.6055C701.619 95.5997 711.81 99.9855 721.823 104.753C769.095 127.228 821.736 165.372 859.68 201.48C895.101 235.075 926.474 272.694 953.162 313.573C958.76 321.975 964.628 330.047 969.875 338.698C1006.35 398.578 1029.93 465.405 1039.12 534.912C1040.08 542.171 1041.1 549.485 1041.71 556.782C1042.01 560.393 1041.9 564.062 1042.28 567.657C1042.71 571.818 1044.03 575.497 1044.11 579.786C1044.28 589.808 1044.17 599.855 1044.15 609.879C1044.14 615.592 1044.46 621.52 1044.03 627.204C1043.83 629.884 1042.52 632.298 1042.28 634.986C1041.44 644.299 1041.06 653.593 1039.81 662.89C1037.59 679.494 1033.58 695.626 1029.54 711.835C1028.37 716.524 1027.66 721.318 1026.47 726.005C1024.73 732.89 1022.27 739.767 1019.93 746.473C1014.55 761.886 1007.48 776.69 1001.26 791.749C996.041 804.401 990.746 816.943 984.708 829.241C982.322 834.099 979.422 838.702 976.971 843.531C974.07 849.245 971.979 855.441 968.615 860.909C963.175 869.751 955.366 876.931 949.397 885.388C945.043 891.556 942.281 898.703 937.934 904.796C932.901 911.85 925.437 917.546 919.575 923.965C914.741 929.257 910.628 935.343 905.625 940.434C902.086 944.036 897.789 946.986 893.963 950.282C889.166 954.415 884.655 959.391 879.37 962.855C870.436 968.71 860.667 973.548 851.632 979.461C845.123 983.722 839.035 988.648 832.438 992.759C824.464 997.729 815.991 1001.91 807.967 1006.86C799.942 1011.8 791.961 1017.3 783.619 1021.67C775.474 1025.94 766.294 1028.59 757.96 1032.58C753.894 1034.52 750.448 1037.98 746.122 1039.35C742.544 1040.48 738.626 1040.36 734.917 1040.68C724.207 1041.58 713.929 1042.12 703.177 1042.14C702.936 1046.07 702.295 1049.17 700.49 1052.73C696.643 1060.3 689.981 1066.38 681.8 1068.9C672.506 1071.76 665.568 1068.68 657.477 1064.43C643.764 1067.16 629.98 1069.81 616.063 1071.26C612.204 1072.2 607.513 1072.3 603.542 1072.73C589.238 1074.29 575.426 1075.13 561.025 1075.14C543.402 1075.16 526.454 1073.75 508.979 1071.68C473.386 1067.73 438.382 1059.6 404.687 1047.47C340.893 1024.38 278.385 983.927 227.868 938.729C214.887 927.114 202.872 914.064 190.557 901.734C178.268 889.43 166.98 875.28 156.331 861.581C96.89 785.782 59.1652 695.254 47.1885 599.676C44.3468 575.823 44.7181 554.642 44.7196 530.799L44.322 530.459L43.6663 529.884C41.0704 527.637 39.3152 525.865 38.1012 522.594C31.7227 505.41 45.792 477.021 53.004 461.088C50.477 461.016 47.702 461.018 45.3664 459.922C42.8325 458.745 40.9274 456.535 40.137 453.855C35.8346 439.375 61.119 407.113 68.4187 393.954C67.6029 393.955 66.7872 393.939 65.972 393.908C61.0526 393.739 58.7058 391.797 55.4723 388.347C55.3926 386.615 55.2734 384.845 55.3376 383.112C55.9863 365.592 80.2083 341.61 92.2669 329.942C86.7988 328.052 84.2728 326.7 80.2047 322.395C80.166 319.521 80.1822 316.566 80.9154 313.766C84.106 301.585 107.178 285.065 117.438 277.104C120.649 274.611 123.828 271.368 127.368 269.437C123.37 267.953 119.317 266.429 116.933 262.657C115.619 260.577 115.305 258.06 115.881 255.685C119.754 239.698 152.235 226.392 165.492 218.439C161.916 216.484 158.057 213.559 156.724 209.531C155.937 207.152 156.263 204.622 157.387 202.408C163.324 190.721 185.021 184.466 196.679 180.338C201.291 178.705 205.847 176.75 210.508 175.294C208.293 173.298 205.689 171.249 203.929 168.839C202.144 166.392 200.877 163.411 201.539 160.345C203.845 149.671 227.916 144.564 236.687 142.95C241.068 142.143 249.621 142.049 253.149 139.595C250.289 136.198 248.391 132.238 248.221 127.729C248.109 124.746 248.978 122.104 251.15 120.009C261.423 110.097 291.777 112.58 305.334 112.512C304.397 109.286 302.974 105.5 302.745 102.163C302.575 99.6797 303.742 97.179 305.458 95.431C311.659 89.1113 328.959 88.7671 337.39 89.1292C342.416 89.345 347.315 90.2097 352.359 90.3178C343.952 76.268 333.288 61.0886 330.321 44.7467C328.861 36.703 329.833 28.694 334.664 21.8855C342.881 10.3062 355.215 7.26065 368.397 4.92595ZM747.214 292.783C747.396 305.517 740.789 315.742 732.17 324.64C703.471 354.269 656.108 372.9 616.099 380.087C610.304 381.128 604.381 381.466 598.546 382.246C588.741 383.555 579.307 384.944 569.362 385.043L541.097 385.083C535.177 385.087 529.008 385.408 523.116 384.847C509.451 383.546 495.987 380.154 482.787 376.569C479.318 375.626 473.669 378.196 470.33 379.304C452.416 385.25 436.251 392.481 420.178 402.373C412.438 407.137 404.785 412.348 397.424 417.667C410.039 422.003 418.926 429.696 424.73 441.75C426.493 445.41 428.353 450.279 428.868 454.317C429.188 456.823 428.908 459.458 429.478 461.923C432.516 475.061 439.971 486.624 434.901 500.51C431.243 510.531 424.857 513.945 416.353 519.047C416.182 526.26 411.949 537.003 406.75 541.844C402.271 546.014 395.451 548.729 389.353 548.386C382.209 547.984 376.597 543.757 372.114 538.504C368.127 533.833 364.753 529.018 359.467 525.653C353.311 521.734 345.866 520.579 338.834 519.233C323.911 516.377 311.244 510.272 302.515 497.578C295.336 501.807 282.04 519.692 277.046 527.274C289.246 543.504 295.247 564.196 295.303 584.488C310.265 572.914 331.163 568.923 349.727 571.281C360.839 572.693 374.707 578.505 381.644 587.64C386.61 594.18 387.271 600.354 387.089 608.343C393.697 615.021 397.195 624.865 397.164 634.192C397.142 640.536 395.14 646.706 390.426 651.111C386.921 654.388 382.374 656.218 377.749 657.254C378.33 666.542 377.655 675.313 371.201 682.643C367.612 686.72 362.329 689.714 356.83 689.96C349.344 690.294 344.802 685.42 338.268 683.134C334.149 681.694 329.491 681.689 325.183 681.926C313.269 682.584 306.639 687.858 296.108 691.927C273.631 700.612 249.234 691.985 232.535 675.773C227.786 671.163 223.425 665.247 220.382 659.387C219.84 666.128 217.965 672.311 216.85 678.928C215.555 686.605 215.263 695.356 215.103 703.161C213.562 778.335 244.51 846.025 292.628 902.43C300.775 911.979 310.457 921.717 319.952 929.962C326.979 936.064 334.47 941.607 341.519 947.658C367.379 967.248 411.992 992.673 443.957 998.615C444.246 982.981 450.917 972.559 461.907 961.961C466.451 957.579 471.249 953.862 476.619 950.539C479.343 948.853 482.314 947.409 484.88 945.5C474.26 944.728 462.808 941.687 452.545 938.904C418.183 929.584 380.867 915.128 357.03 887.47C350.299 879.66 344.761 870.732 343.485 860.321C337.259 854.594 333.765 851.014 333.417 842.211C332.029 807.075 366.705 766.905 386.99 740.051C398.117 725.321 409.014 709.61 421.659 696.132C438.756 677.912 457.19 664.347 481.212 656.591C486.924 654.747 493.929 655.371 499.199 653.124C503.854 651.14 508.186 648.172 512.555 645.629C517.707 642.63 523.156 639.81 528.556 637.283C555.918 624.478 602.823 612.3 632.987 611.559C642.655 611.322 651.777 610.672 659.324 617.804C668.473 626.45 669.43 639.16 669.569 651.006C669.636 656.662 669.054 662.296 669.152 667.957C675.738 667.933 682.685 668.391 689.196 667.528C696.438 666.569 703.362 663.644 710.387 661.711C751.072 650.52 788.74 632.555 818.818 602.333C835.115 585.93 848.538 566.903 858.524 546.048C868.793 524.423 873.069 503.046 878.958 480.048C882.742 465.267 887.416 450.617 890.536 435.681C892.786 424.907 893.876 413.683 895.651 402.796C897.574 390.992 899.864 378.573 899.867 366.583C899.87 354.863 893.093 342.362 889.21 331.421C887.637 326.991 887.801 322.074 886.154 317.657C883.356 310.152 879.272 303.263 875.841 296.055C855.974 254.328 834.263 221.315 801.133 188.587C778.321 166.167 752.806 146.676 725.176 130.562C720.053 127.599 714.94 124.517 709.655 121.85C705.108 119.556 697.41 117.431 693.739 114.354C694.49 118.799 699.008 126.73 700.834 131.635C704.398 141.21 706.209 151.965 711.227 160.904C716.154 169.679 723.089 177.977 728.786 186.357C743.443 207.915 754.637 233.835 756.621 259.979C757.257 268.361 757.468 278.812 752.548 286.038C750.947 288.387 749.017 290.585 747.214 292.783ZM613.315 958.422C611.393 962.086 609.974 965.95 607.994 969.578C601.374 981.71 591.278 991.397 580.361 999.697C574.849 1003.89 568.596 1007.72 563.601 1012.49C569.491 1010.99 574.85 1010.81 580.9 1010.83C591.786 1008.37 604.049 1007.4 614.446 1003.45C615.016 998.875 614.727 994.164 615.393 989.631C616.763 980.306 624.346 968.789 630.974 962.346C625.246 958.664 619.152 960.685 613.315 958.422Z"/>
	<defs>
		<linearGradient id="gradient_0" gradientUnits="userSpaceOnUse" x1="921.08728" y1="892.85571" x2="561.1485" y2="492.88766">
			<stop offset="0" stop-color="#007962"/>
			<stop offset="1" stop-color="#069373"/>
		</linearGradient>
	</defs>
	<path fill="url(#gradient_0)" d="M907.012 449.672C910.494 437.188 911.191 425.408 912.229 412.6C912.908 404.213 913.799 396.099 913.761 387.658C913.543 339.69 897.169 293.796 873.805 252.459C869.263 244.424 863.741 233.943 857.133 227.552L857.441 226.801C859.728 227.027 889.75 261.912 892.968 265.83C914.996 292.651 936.269 320.763 953.831 350.746C1007.1 443.499 1029.53 550.777 1017.88 657.102C1014.75 686.098 1008.75 714.711 999.978 742.524C991.236 770.592 980.227 798.313 965.976 824.072C939.263 872.358 898.978 917.17 856.377 951.936C820.525 981.193 780.187 1004.82 735.639 1017.89L736.203 1017.43C750.49 1006 766.958 996.982 781.896 986.388C806.605 968.864 847.195 934.028 861.431 907.329C865.088 900.47 867.344 892.743 868.281 885.038C870.542 866.46 862.119 849.897 850.817 835.735C832.368 812.618 807.103 794.66 777.058 791.475C765.201 790.218 753.881 791.398 742.135 793.067C749.51 793.982 757.193 793.858 764.467 795.247C794.403 800.962 819.677 818.821 838.236 842.531C847.458 854.312 855.063 867.648 853.029 883.081C849.319 911.223 806.798 947.956 785.017 964.425C776.294 971.02 756.142 986.607 746.506 990.388C738.206 993.645 734.155 1000.88 727.121 1005.85C718.058 1012.24 704.533 1016.89 696.721 1023.55C693.126 1026.62 690.743 1030.62 688.925 1034.91C686.103 1041.58 684.966 1046.99 679.023 1051.68C675.113 1052.35 671.568 1052.8 668.164 1050.21C665.439 1048.14 664.416 1044.65 664.09 1041.39C662.705 1027.51 671.976 1010.43 680.667 1000.22C687.221 992.529 694.502 987.523 703.062 982.343C679.844 990.407 662.938 998.942 651.758 1022C649.81 1026.02 646.507 1037.61 641.925 1039.06C640.936 1039.38 639.926 1039.05 639.101 1038.46C634.966 1035.52 633.308 1029.68 632.702 1024.87C631.331 1014.01 637.046 1002.93 643.63 994.693C653.844 981.912 667.048 973.743 681.167 965.972C668.008 968.46 656.393 972.245 645.683 980.532C641.773 983.557 638.136 987.22 634.059 989.986C638.483 977.13 646.769 967.094 659.092 961.113C674.132 953.812 689.674 953.979 705.966 954.489C719.803 940.703 731.824 924.927 745.076 910.549C749.323 905.942 753.607 900.81 758.452 896.835C764.503 891.871 771.962 888.992 778.334 884.444C777.891 884.241 777.487 883.903 777.005 883.834C774.205 883.435 768.166 884.905 765.123 885.184C760.529 885.606 755.803 885.603 751.202 885.273C742.641 884.659 734.371 882.175 726.676 878.418C719.074 874.69 712.135 869.74 706.136 863.766C704.747 862.409 700.045 855.466 698.434 855.339C698.156 855.317 697.91 855.532 697.648 855.628C696.437 861.21 701.647 869.378 704.578 873.94C712.227 885.847 722.06 892.383 734.269 899.077C726.369 908.857 712.135 921.69 699.335 922.982C680.804 924.852 656.365 922.243 638.929 916.218C641.649 912.8 645.155 910.221 648.035 906.974C651.86 902.663 655.295 897.208 658.337 892.302C658.65 891.797 658.486 891.977 658.885 891.663C661.624 884.749 664.034 877.9 665.882 870.696C666.248 867.52 666.937 864.316 667.47 861.16C656.73 880.166 644.891 896.024 625.811 907.46C595.158 925.83 563.113 931.591 527.849 931.452C506.45 931.367 485.8 928.988 465.033 923.691C433.152 915.56 388.568 900.786 366.957 874.893C363.42 870.655 361.392 865.518 358.595 860.802C358.807 860.92 359.021 861.036 359.232 861.157C364.784 864.342 371.133 865.73 376.559 868.882C427.488 883.107 504.737 884.804 556.074 871.518C568.95 868.186 580.331 862.141 592.81 857.934C606.61 853.281 615.323 855.542 627.92 861.838C626.906 858.74 625.783 855.791 624.092 852.996C623.19 851.484 622.148 850.061 620.98 848.744C610.51 837.125 593.64 845.128 581.968 850.259C571.381 854.912 561.045 859.439 549.817 862.403C501.852 875.066 428.882 872.776 380.823 860.952C370.151 858.327 356.011 852.04 350.156 842.359C350.015 840.38 349.99 838.329 350.267 836.364C354.352 807.325 384.663 772.561 402.095 749.733C414.806 733.087 427.962 713.155 444.94 700.502C446.218 698.791 448.568 697.169 450.218 695.785C463.647 684.515 479.274 678.222 495.461 672.095C489.595 679.944 483.045 687.15 476.173 694.123C474.465 695.933 471.529 698.423 470.384 700.543C472.477 699.757 474.069 698.328 475.801 696.953C489.465 685.176 503.851 673.167 519.427 664C542.399 650.481 569.261 643.178 595.171 637.84C608.713 635.05 623.402 631.887 637.31 632.47C641.453 632.644 644.113 632.964 646.978 636.059C647.272 636.697 647.555 637.338 647.794 637.999C651.72 648.861 646.542 687.129 647.77 702.129C648.89 715.821 654.009 728.345 657.79 741.405C661.164 753.115 662.987 765.218 663.211 777.402C663.449 792.946 661.499 808.765 654.792 822.903C673.581 798.611 677.036 768.717 671.372 739.092C669.211 727.787 665.013 716.58 663.824 705.146C663.119 698.364 663.687 691.429 664.088 684.639C696.292 684.609 725.454 692.805 753.891 707.466C741.486 695.8 729.064 687.358 713.987 679.487C733.362 675.229 752.029 669.759 769.81 660.812C785.747 652.793 815.787 636.679 826.473 622.974C832.315 615.482 835.75 605.992 842.118 598.731C845.049 595.389 848.558 592.512 851.607 589.262C858.922 581.465 866.133 571.181 869.522 561.034C870.21 557.896 872.369 554.326 873.513 551.229C875.212 546.63 876.449 541.872 878.1 537.257C879.486 533.384 881.3 529.671 882.627 525.779C888.416 508.8 893.748 491.664 899.142 474.554C901.758 466.255 904.034 457.853 907.012 449.672Z"/>
	<path fill="#016E5B" d="M658.885 891.663L659.268 892.699C658.875 893.372 658.655 893.84 658.409 894.557C662.456 890.748 668.046 888.669 672.422 884.635C681.241 876.507 689.847 867.821 691.857 855.436C692.658 850.498 692.597 845.312 693.907 840.475C695.026 836.346 697.179 833.08 698.76 829.189C699.138 828.259 699.149 827.986 699.934 827.339C703.09 841.361 707.825 851.299 719.276 860.574C735.797 873.958 763.216 878.241 783.893 875.865C784.985 875.74 785.722 875.652 786.825 875.739L783.266 878.714C783.113 879.386 782.957 880.054 782.752 880.713C782.092 882.835 780.165 883.495 778.334 884.444C777.891 884.241 777.487 883.903 777.005 883.834C774.205 883.435 768.166 884.905 765.123 885.184C760.529 885.606 755.803 885.603 751.202 885.273C742.641 884.659 734.371 882.175 726.676 878.418C719.074 874.69 712.135 869.74 706.136 863.766C704.747 862.409 700.045 855.466 698.434 855.339C698.156 855.317 697.91 855.532 697.648 855.628C696.437 861.21 701.647 869.378 704.578 873.94C712.227 885.847 722.06 892.383 734.269 899.077C726.369 908.857 712.135 921.69 699.335 922.982C680.804 924.852 656.365 922.243 638.929 916.218C641.649 912.8 645.155 910.221 648.035 906.974C651.86 902.663 655.295 897.208 658.337 892.302C658.65 891.797 658.486 891.977 658.885 891.663Z"/>
	<path fill="#25B893" d="M475.801 696.953C489.465 685.176 503.851 673.167 519.427 664C542.399 650.481 569.261 643.178 595.171 637.84C608.713 635.05 623.402 631.887 637.31 632.47C641.453 632.644 644.113 632.964 646.978 636.059C647.111 637.703 647.219 639.348 647.304 640.995C647.346 641.8 647.318 641.476 647.584 642.423C641.504 644.148 634.438 643.465 628.117 644.019C620.645 644.675 612.919 646.051 605.564 647.536C587.169 651.252 569.018 656.077 551.863 663.791C537.57 670.218 523.827 678.158 509.641 684.913C505.298 686.981 480.281 698.885 476.646 697.44C476.344 697.32 476.082 697.115 475.801 696.953Z"/>
	<path fill="#016E5B" d="M376.559 868.882C374.013 869.817 367.172 866.394 364.652 865.201C364.211 864.992 363.78 864.764 363.345 864.545C362.667 864.203 362.951 864.336 362.052 864.064C364.061 874.177 380.4 886.577 388.753 892.126C400.144 899.693 423.71 911.159 436.942 914.164C443.227 915.591 449.342 918.351 455.512 920.231C464.948 923.106 478.617 925.925 488.356 927.698C498.748 929.59 509.892 930.089 520.434 930.393C557.776 931.47 593.968 925.826 626.254 905.965C641.088 896.84 652.223 884.722 661.123 869.83C662.645 867.283 665.181 863.552 665.845 860.646C666.123 859.429 665.896 859.2 665.784 858.085C665.622 856.478 667.607 854.453 668.532 853.174C668.683 858.642 669.327 866.133 665.882 870.696C666.248 867.52 666.937 864.316 667.47 861.16C656.73 880.166 644.891 896.024 625.811 907.46C595.158 925.83 563.113 931.591 527.849 931.452C506.45 931.367 485.8 928.988 465.033 923.691C433.152 915.56 388.568 900.786 366.957 874.893C363.42 870.655 361.392 865.518 358.595 860.802C358.807 860.92 359.021 861.036 359.232 861.157C364.784 864.342 371.133 865.73 376.559 868.882Z"/>
	<path fill="#25B893" d="M444.94 700.502C446.218 698.791 448.568 697.169 450.218 695.785C463.647 684.515 479.274 678.222 495.461 672.095C489.595 679.944 483.045 687.15 476.173 694.123C472.733 694.541 470.282 696.061 467.198 697.464C467.442 697.245 467.683 697.022 467.93 696.806C472.107 693.16 481.556 691.461 482.585 684.957C482.723 684.083 482.407 683.556 481.819 682.898C481.182 682.184 480.119 681.564 479.333 681.005L481.857 678.905C479.759 678.753 476.176 680.848 474.269 681.803C462.115 687.888 455.498 692.717 445.208 701.296L444.94 700.502Z"/>
	<path fill="#0D9C79" d="M467.198 697.464C470.282 696.061 472.733 694.541 476.173 694.123C474.465 695.933 471.529 698.423 470.384 700.543C467.455 701.46 460.912 703.071 458.631 704.646C456.431 706.163 454.501 708.275 452.358 709.923L451.51 709.801L452.161 708.542L451.442 707.455L451.704 706.707C457.358 707.581 462.188 699.554 467.198 697.464Z"/>
	<path fill="#016E5B" d="M512.971 705.319C533.512 704.935 546.073 707.451 564.101 717.697C570.131 721.125 576.237 724.891 582.978 726.756C595.44 730.204 609.995 728.803 622.852 728.721C608.181 732.743 596.703 739.943 584.354 748.628C590.859 767.325 593.334 786.996 586.473 805.961C580.776 821.708 568.92 833.888 553.9 841.014C542.099 846.729 530.307 848.36 517.226 847.761C512.609 847.549 508.037 847.163 503.55 846.005C490.371 842.605 474.127 833.231 464.953 823.042C454.203 811.104 448.351 793.841 447.675 777.925C447.291 768.894 448.231 759.509 448.657 750.457C452.503 745.393 454.913 739.343 458.913 734.272C472.417 717.157 491.616 707.805 512.971 705.319Z"/>
	<path fill="#012630" d="M516.112 718.411C549.229 717.069 577.185 742.785 578.608 775.899C580.031 809.013 554.385 837.032 521.275 838.537C488.048 840.047 459.91 814.291 458.482 781.061C457.053 747.831 482.879 719.757 516.112 718.411Z"/>
	<path fill="#016E5B" d="M511.836 728.802C539.532 725.12 564.959 744.615 568.594 772.318C572.228 800.02 552.69 825.414 524.981 829.001C497.339 832.58 472.02 813.099 468.394 785.463C464.768 757.827 484.206 732.474 511.836 728.802Z"/>
	<path fill="#012630" d="M508.891 755.274C515.965 754.783 522.45 754.645 528.92 758.144C535.409 761.619 540.191 767.601 542.152 774.697C544.469 783.069 542.45 790.615 538.337 797.95C533.983 805.713 528.22 811.127 519.554 813.6C513.649 814.962 506.216 813.602 500.92 810.838C494.149 807.303 488.716 800.652 486.635 793.307C484.383 785.357 485.825 776.481 489.85 769.331C494.145 761.703 500.575 757.584 508.891 755.274Z"/>
	<path fill="#9BECED" d="M521.004 763.51C525.589 763 529.747 766.231 530.386 770.799C531.026 775.367 527.915 779.615 523.366 780.384C520.307 780.901 517.209 779.715 515.277 777.287C513.345 774.86 512.885 771.574 514.076 768.709C515.267 765.844 517.921 763.853 521.004 763.51Z"/>
	<path fill="#016E5B" d="M852.232 710.852C852.727 710.954 852.79 710.959 853.352 711.127C873.769 717.257 889.139 727.097 903.501 742.731C908.551 748.228 913.051 753.758 916.514 760.413C926.194 779.02 928.632 807.281 922.317 827.237L921.84 828.716C920.947 827.382 921.166 814.338 920.847 811.574C916.813 776.573 896.756 746.112 870.152 723.703C864.598 719.026 858.191 715.676 852.609 711.163C852.482 711.061 852.357 710.956 852.232 710.852Z"/>
	<path fill="#016E5B" d="M941.401 720.533C942.537 720.496 943.578 720.647 944.691 720.857C948.472 721.572 951.591 723.372 953.692 726.686C955.621 729.729 956.246 733.36 955.269 736.847C953.512 743.111 947.592 745.832 942.325 748.695C941.651 748.513 941.51 748.5 940.785 748.157C934.673 745.262 929.552 740.038 927.416 733.649C928.194 730.881 928.941 728.362 930.709 726.022C933.49 722.341 937.001 721.21 941.401 720.533Z"/>
	<path fill="#016E5B" d="M959.738 679.861C962.687 679.831 964.987 679.837 967.291 681.874C969.676 683.982 970.602 687.143 970.63 690.242C970.667 694.296 968.86 698.56 965.944 701.37C963.886 703.353 961.481 704.721 958.581 704.724C956.77 704.544 954.845 704.445 953.196 703.604C947.844 700.872 946.696 694.485 945.2 689.236C948.633 684.17 953.888 681.25 959.738 679.861Z"/>
	<path fill="#012630" d="M392.07 804.71C393.448 804.835 394.754 805.152 395.996 805.775C398.252 806.907 400.219 808.692 400.924 811.181C401.73 814.024 401.038 816.992 399.641 819.524C397.296 823.776 393.388 826.565 388.751 827.786C387.087 827.659 385.236 827.531 383.666 826.933C381.712 826.188 379.962 824.835 379.195 822.836C378.279 820.45 378.887 817.838 379.939 815.607C382.386 810.516 386.747 806.599 392.07 804.71Z"/>
	<path fill="#016E5B" d="M943.378 655.535L943.627 655.96C942.739 660.707 921.765 682.16 917.103 688.366C913.253 693.491 910.329 698.943 907.622 704.737L907.263 704.618C906.846 702.285 909.254 696.554 910.11 694.172C915.75 678.486 928.035 662.668 943.378 655.535Z"/>
	<path fill="#016E5B" d="M627.518 763C629.282 762.886 630.858 762.887 632.548 763.487C635.496 764.534 638.473 767.318 639.763 770.157C640.639 772.084 640.666 774.179 639.822 776.123C638.869 778.317 636.106 779.059 634.045 779.927C632.352 780.687 630.271 781.665 628.385 781.471C626.466 781.273 624.867 780.271 623.737 778.723C622.217 776.642 622.161 773.416 622.723 771.01C623.432 767.968 624.872 764.759 627.518 763Z"/>
	<path fill="#016E5B" d="M711.367 705.13C711.757 705.206 712.231 705.284 712.591 705.435C715.274 706.56 716.904 711.146 718.133 713.625C717.415 715.462 716.626 717.798 715.235 719.241C713.228 721.321 710.195 721.014 707.551 721.068C706.603 720.783 705.626 720.501 704.726 720.087C702.615 719.117 701.105 716.223 700.331 714.15C699.734 712.552 699.564 710.775 700.454 709.234C702.206 706.198 708.157 705.805 711.367 705.13Z"/>
	<path fill="#016E5B" d="M739.996 721.893C740.609 721.798 741.174 721.774 741.794 721.818C744.591 722.016 748.081 722.572 749.86 724.997C751.04 726.605 751.2 728.669 750.771 730.56C749.906 734.374 747.457 735.728 744.384 737.685C743.778 738.108 743.198 738.269 742.503 738.507C739.883 738.079 737.688 736.574 735.413 735.272C734.939 731.587 734.644 728.006 734.577 724.291L739.996 721.893Z"/>
	<path fill="#016E5B" d="M966.146 640.675C966.958 640.77 966.908 640.743 967.604 640.889C970.639 641.527 973.655 642.724 975.36 645.472C976.458 647.243 976.71 649.326 976.093 651.314C975.085 654.561 972.444 655.748 969.626 657.177C968.703 657.423 967.791 657.698 966.826 657.681C964.73 657.646 962.743 656.78 961.42 655.139C960.069 653.462 959.945 650.937 960.271 648.909C960.877 645.131 963.12 642.823 966.146 640.675Z"/>
	<path fill="#016E5B" d="M774.093 727.303C775.751 727.188 777.467 727.051 779.116 727.324C780.758 727.595 782.382 728.65 783.244 730.095C784.31 731.881 784.471 733.817 783.973 735.823C782.955 739.924 780.413 742.06 776.948 744.171C776.39 744.116 775.828 744.072 775.282 743.935C773.049 743.373 770.232 740.962 769.06 739.001C767.902 737.064 767.592 734.479 768.334 732.335C769.23 729.743 771.86 728.524 774.093 727.303Z"/>
	<path fill="#016E5B" d="M965.914 607.083C967.341 606.911 968.791 606.743 970.229 606.874C972.469 607.076 974.882 608.795 976.206 610.555C977.411 612.157 977.907 614.131 977.484 616.101C976.861 619.004 974.533 620.558 972.157 622.002C970.508 622.418 968.814 622.775 967.107 622.516C965.062 622.205 963.197 620.739 962.076 619.049C960.888 617.286 960.472 615.114 960.922 613.036C961.57 609.955 963.349 608.645 965.914 607.083Z"/>
	<path fill="#016E5B" d="M589.09 684.484C592.951 684.162 596.904 684.699 600.756 685.039C601.916 686.435 603.628 688.219 603.948 690.063C604.376 692.53 602.498 694.754 601.238 696.7C600.614 697.398 600.045 698.043 599.227 698.533C598.057 699.233 595.999 699.102 594.766 698.658C592.121 697.703 590.282 695.112 589.239 692.612C588.134 689.963 588.088 687.152 589.09 684.484Z"/>
	<path fill="#016E5B" d="M611.407 748.747C612.333 748.756 613.008 748.954 613.894 749.197C615.051 750.31 615.527 751.209 615.716 752.789C616.104 756.049 614.784 759.641 612.755 762.166C610.907 764.466 608.921 764.59 606.155 764.912C604.978 764.404 603.47 763.716 602.819 762.558C601.844 760.822 601.875 757.381 602.487 755.517C603.152 753.489 604.409 752.639 606.238 751.741C608.066 750.844 609.699 749.849 611.407 748.747Z"/>
	<path fill="#012630" d="M796.14 441.542L796.636 441.635C798.231 441.922 798.98 442.644 800.013 443.829C801.338 445.347 801.978 446.48 801.813 448.455C799.398 447.758 796.822 447.315 795.391 445.075C795.221 443.398 795.465 443.032 796.14 441.542Z"/>
	<defs>
		<linearGradient id="gradient_1" gradientUnits="userSpaceOnUse" x1="366.56781" y1="1088.0389" x2="175.27748" y2="155.31688">
			<stop offset="0" stop-color="#1A9335"/>
			<stop offset="1" stop-color="#34AD35"/>
		</linearGradient>
	</defs>
	<path fill="url(#gradient_1)" d="M491.596 1048.54C484.444 1047.97 477.096 1046.22 470.078 1044.76C438.316 1038.03 407.36 1027.93 377.734 1014.65C253.843 960.356 148.698 849.933 99.5243 724.056C53.9132 607.299 51.6478 463.698 102.479 348.174C143.934 253.962 224.535 162.087 321.919 124.355C332.806 131.805 339.478 138.943 341.971 152.186C344.145 163.735 344.479 175.428 345.642 187.089C346.797 198.679 348.807 210.395 351.043 221.818C352.919 231.402 356.503 240.491 360.674 249.29C362.602 253.357 364.88 257.388 366.438 261.611C371.515 275.376 374.261 300.148 365.638 312.928C364.943 313.957 364.199 314.886 363.349 315.788C360.179 304.223 352.577 292.775 341.911 286.812C340.7 286.146 339.471 285.515 338.225 284.918C345.602 295.17 350.866 307.578 348.833 320.419C346.047 338.011 325.788 353.768 312.127 363.51C300.568 371.753 289.387 378.03 276.209 383.361C273.083 384.626 269.657 386.356 266.324 386.915C262.788 387.508 258.878 387.021 255.312 386.848C257.848 387.931 260.308 389.114 263.042 389.585C271.612 392.537 280.338 395.194 288.561 399.039C306.81 407.57 326.044 423.044 340.729 436.84C356.119 432.371 385.03 427.233 399.593 435.308C407.013 439.422 410.499 445.361 413.388 453C401.988 447.021 395.07 444.553 381.887 445.252C378.579 445.428 374.751 445.52 371.538 446.39C371.069 446.517 370.915 446.625 370.533 446.837C373.67 449.102 379.567 449.099 383.327 450.07C401.524 454.768 418.05 466.236 421.338 485.984C421.994 489.922 421.824 494.035 419.538 497.447C418.368 498.645 416.454 500.526 414.681 500.561C414.477 500.565 413.285 500.417 413.029 500.282C411.43 499.439 406.282 490.481 404.848 488.462C403.078 485.972 401.103 483.74 399.016 481.513C386.239 469.861 374.773 467.125 357.657 467.829L356.756 467.87C374.151 476.416 390.503 483.935 397.362 503.706C399.511 509.9 400.926 518.137 398.007 524.237C397.376 525.557 396.643 526.756 395.743 527.905C394.704 528.773 393.75 529.374 392.351 529.461C385.956 529.862 378.766 517.093 374.45 512.987C361.516 500.684 346.177 503.744 331.651 496.472C324.659 492.972 319.269 487.498 313.645 482.195C310.392 481.629 307.179 480.981 303.996 480.096C280.252 473.49 234.408 453.248 215.418 438.387C209.625 433.853 204.365 428.313 200.791 421.843C194.554 410.551 194.84 397.257 198.392 385.162C207.563 353.931 238.273 314.253 265.705 296.661C270.596 293.525 276.057 290.644 281.532 288.674C283.641 287.915 285.966 287.756 287.931 286.672L286.975 286.135C255.797 289.493 229.161 310.254 210.062 334.091C193.492 354.772 178.186 383.492 181.177 410.691C182.272 420.644 186.031 429.324 191.646 437.547C209.199 457.977 233.114 470.278 257.13 481.604C248.318 491.063 241.025 501.734 232.92 511.759C206.447 514.699 187.039 524.702 167.281 542.528C148.48 560.886 136.229 583.57 129.225 608.764C129.322 608.61 129.42 608.456 129.514 608.301C132.522 603.37 134.299 597.798 137.486 592.958C156.765 563.675 187.659 537.476 222.072 528.721C233.116 525.911 244.784 525.942 254.851 531.881C265.773 538.323 271.47 550.75 274.384 562.603C279.384 582.935 279.885 606.015 275.326 626.426C290.932 607.704 310.157 589.123 335.79 586.944C345.506 586.118 356.816 587.899 364.384 594.409C365.869 595.686 368.31 598.069 368.523 600.134C368.538 600.277 368.513 600.423 368.508 600.567C365.477 601.193 360.071 599.282 356.822 598.864C342.669 597.045 326.454 601.826 314.402 609.212C332.708 606.278 354.426 604.462 370.37 615.917C375.29 619.452 379.047 625.29 379.911 631.326C380.167 633.117 380.279 635.624 378.918 637.043C377.592 638.426 375.28 638.402 373.534 638.193C367.105 637.421 361.516 633.247 355.738 630.611C343.742 625.137 327.06 624.82 314.77 629.462C309.996 631.266 305.715 633.934 301.473 636.739C317.567 634.892 335.317 633.568 348.839 644.423C354.2 648.727 359.058 655.73 359.89 662.629C360.065 664.08 359.96 665.213 359.57 666.609C359.369 666.905 359.172 667.204 358.967 667.497C358.406 668.301 357.662 669.12 356.663 669.37C352.919 670.308 339.109 662.432 331.568 662.359C309.346 662.144 300.806 673.022 282.952 675.7C271.05 677.485 259.531 672.934 250.07 665.967C232.253 652.846 223.908 632.888 220.709 611.677C215.719 620.739 208.115 629.5 201.321 637.277C190.081 650.144 179.168 659.671 161.515 660.285C155.517 660.493 149.46 659.828 143.48 660.282L142.982 660.325C157.368 668.412 171.185 672.916 187.783 671.32C187.128 683.67 186.656 695.994 187.473 708.349C192.552 785.131 228.308 860.382 279.381 917.154C323.134 965.79 379.706 1001.11 442.611 1019.08C452.181 1021.8 461.94 1024.31 471.714 1026.19C478.989 1027.59 486.48 1028.5 493.689 1030.16C502.603 1030.8 511.452 1032.29 520.376 1032.88C551.882 1034.95 585.254 1033.93 616.166 1027.12C618.155 1035.33 620.5 1042.08 626.107 1048.56C591.626 1056.33 543.079 1055.32 508.012 1051.13C503.769 1050.62 495.222 1050.12 491.596 1048.54Z"/>
	<path fill="#158D2E" d="M286.975 286.135C288.772 285.846 290.476 285.799 292.293 285.78C293.394 285.768 292.97 285.724 294.01 286.041L294.785 287.028C294.448 288.599 293.366 289.443 292.066 290.261C288.531 292.486 284.122 293.7 280.276 295.346C274.752 297.766 269.476 300.716 264.522 304.155C260.128 307.229 256.048 310.73 252.343 314.606C247.919 319.301 244.137 324.794 240.156 329.869C232.824 339.218 224.832 348.244 219.007 358.65C215.165 365.516 212.201 373.191 210.277 380.815C207.228 392.906 209.024 402.114 215.514 412.709C220.657 421.106 228.748 427.857 236.777 433.371C249.947 442.417 294.517 463.314 310.041 466.891C313.606 467.713 316.505 467.776 320.093 467.214C323.198 471.443 326.149 475.746 330.221 479.12C337.014 484.749 346.261 487.045 354.382 490.108C362.559 493.193 370.217 496.963 377.077 502.436C385.775 509.376 388.317 520.279 395.743 527.905C394.704 528.773 393.75 529.374 392.351 529.461C385.956 529.862 378.766 517.093 374.45 512.987C361.516 500.684 346.177 503.744 331.651 496.472C324.659 492.972 319.269 487.498 313.645 482.195C310.392 481.629 307.179 480.981 303.996 480.096C280.252 473.49 234.408 453.248 215.418 438.387C209.625 433.853 204.365 428.313 200.791 421.843C194.554 410.551 194.84 397.257 198.392 385.162C207.563 353.931 238.273 314.253 265.705 296.661C270.596 293.525 276.057 290.644 281.532 288.674C283.641 287.915 285.966 287.756 287.931 286.672L286.975 286.135Z"/>
	<path fill="#158D2E" d="M222.553 594.458C224.516 595.255 226.497 596.007 228.494 596.714C232.984 618.154 243.521 644.028 262.696 656.422C270.551 661.499 278.8 661.734 287.645 659.738C303.736 656.106 316.08 651.628 333.02 654.06C340.096 655.075 346.164 656.904 352.249 660.717C354.458 662.101 356.323 663.564 358.223 665.351L359.57 666.609C359.369 666.905 359.172 667.204 358.967 667.497C358.406 668.301 357.662 669.12 356.663 669.37C352.919 670.308 339.109 662.432 331.568 662.359C309.346 662.144 300.806 673.022 282.952 675.7C271.05 677.485 259.531 672.934 250.07 665.967C232.253 652.846 223.908 632.888 220.709 611.677C215.719 620.739 208.115 629.5 201.321 637.277C190.081 650.144 179.168 659.671 161.515 660.285C155.517 660.493 149.46 659.828 143.48 660.282L142.982 660.325C141.044 656.458 133.155 653.281 129.355 651.479C132.697 652.495 136.119 653.703 139.635 653.834C165.826 654.816 190.739 624.363 207.653 607.406C212.036 603.011 216.83 597.012 222.553 594.458Z"/>
	<path fill="#00672C" d="M191.646 437.547C209.199 457.977 233.114 470.278 257.13 481.604C248.318 491.063 241.025 501.734 232.92 511.759C206.447 514.699 187.039 524.702 167.281 542.528C170.336 535.673 185.208 526.659 192.05 523.038C195.971 520.963 199.26 520.422 202.918 517.291C204.812 512.881 198.858 509.869 199.227 505.443C199.421 503.112 201.049 501.268 200.931 498.678C199.827 497.835 199.685 497.806 198.272 497.783C197.091 497.764 196.608 498.312 195.854 499.16C191.963 503.537 188.686 508.216 184.457 512.391C180.518 516.28 176.051 519.671 171.87 523.297C166.762 527.802 161.774 532.441 156.91 537.209C156.123 534.093 180.16 515.132 183.845 511.261C189.351 505.479 196.109 497.634 199.075 490.176C203.291 479.575 200.621 464.291 196.197 454.025C193.942 448.794 193.955 441.996 191.646 437.547Z"/>
	<defs>
		<linearGradient id="gradient_2" gradientUnits="userSpaceOnUse" x1="623.76251" y1="1040.2974" x2="539.34229" y2="1041.3234">
			<stop offset="0" stop-color="#026053"/>
			<stop offset="1" stop-color="#007753"/>
		</linearGradient>
	</defs>
	<path fill="url(#gradient_2)" d="M493.689 1030.16C502.603 1030.8 511.452 1032.29 520.376 1032.88C551.882 1034.95 585.254 1033.93 616.166 1027.12C618.155 1035.33 620.5 1042.08 626.107 1048.56C591.626 1056.33 543.079 1055.32 508.012 1051.13C503.769 1050.62 495.222 1050.12 491.596 1048.54L491.89 1048.23C495.303 1047.64 504.591 1049.81 508.432 1050.28C518.689 1051.52 529.172 1051.57 539.389 1052.96C542.582 1049.07 546.764 1046.11 550.064 1042.35C551.902 1040.25 552.794 1037.34 554.681 1035.37C554.803 1035.24 554.943 1035.13 555.074 1035.01C544.509 1034.82 533.721 1034.75 523.187 1033.98C513.455 1033.26 503.798 1031.86 494.088 1031.05L493.689 1030.16Z"/>
	<path fill="#158D2E" d="M399.016 481.513C402.211 480.882 405.041 480.756 408.283 480.774C411.406 485.89 414.596 493.985 419.538 497.447C418.368 498.645 416.454 500.526 414.681 500.561C414.477 500.565 413.285 500.417 413.029 500.282C411.43 499.439 406.282 490.481 404.848 488.462C403.078 485.972 401.103 483.74 399.016 481.513Z"/>
	<path fill="#158D2E" d="M222.553 594.458C224.179 593.916 226.017 592.946 227.675 593.36C228.403 594.495 228.389 595.405 228.494 596.714C226.497 596.007 224.516 595.255 222.553 594.458Z"/>
	<path fill="#158D2E" d="M258.558 175.775C261.064 175.622 263.705 176.418 265.904 177.577C270.025 179.75 272.647 183.712 273.809 188.159C274.939 192.481 274.349 196.469 272.032 200.284C268.324 206.388 262.846 209.585 256.089 211.111C252.437 210.809 248.113 209.05 245.215 206.833C242.063 204.421 239.911 200.942 239.479 196.97C238.939 192.007 241.057 186.678 244.136 182.856C247.974 178.092 252.658 176.293 258.558 175.775Z"/>
	<path fill="#158D2E" d="M149.658 303.776C152.24 303.948 154.527 304.466 156.86 305.625C160.304 307.336 162.734 310.113 163.94 313.773C165.691 319.087 164.393 324.811 161.755 329.593C158.683 335.16 154.594 338.788 148.474 340.53C144.804 341.142 142.906 341.026 139.61 339.179C136.131 337.23 134.058 333.565 133.062 329.808C131.566 324.169 132.943 318.554 135.914 313.639C139.283 308.068 143.433 305.297 149.658 303.776Z"/>
	<path fill="#158D2E" d="M180.53 255.23C182.96 255.324 185.198 255.805 187.429 256.8C190.878 258.339 193.445 260.755 194.725 264.358C196.524 269.417 195.238 275.588 192.825 280.223C189.821 285.993 185.232 289.8 179.101 291.8C176.315 291.877 173.848 291.966 171.208 290.879C168.026 289.568 165.597 287.381 164.288 284.167C162.407 279.551 162.992 274.009 164.963 269.521C168.068 262.447 173.507 257.991 180.53 255.23Z"/>
	<path fill="#158D2E" d="M218.98 216.234C221.056 216.032 223.206 216.063 225.294 215.988C229.661 218.477 233.424 221.613 234.898 226.617C235.983 230.302 235.403 234.141 233.569 237.485C230.254 243.526 224.52 246.468 218.172 248.328C214.444 249.228 211.226 249.124 207.84 247.126C204.654 245.247 202.73 241.931 201.905 238.397C200.832 233.801 201.831 229.285 204.463 225.402C207.997 220.188 212.925 217.49 218.98 216.234Z"/>
	<path fill="#158D2E" d="M292.839 151.422C295.227 151.274 297.878 150.949 300.244 151.33C303.808 151.904 307.234 153.856 309.325 156.821C312.331 161.083 312.263 165.576 311.543 170.469C307.343 176.85 301.82 179.187 294.907 181.572C293.079 182.243 290.768 182.628 288.826 182.469C285.593 182.204 282.802 180.616 280.773 178.109C277.02 173.472 276.881 168.661 277.409 163.055C281.088 156.867 286.163 153.649 292.839 151.422Z"/>
	<path fill="#158D2E" d="M122.806 359.144C124.396 359.358 125.903 359.683 127.428 360.193C131.543 361.568 134.922 364.31 136.825 368.244C138.806 372.341 139.381 377.673 137.82 381.995C135.658 387.979 130.571 390.864 125.176 393.461C123.405 393.737 121.718 393.963 119.939 393.592C117.096 392.976 114.606 391.274 112.998 388.849C110.338 384.802 109.48 378.965 110.613 374.287C112.279 367.409 117 362.75 122.806 359.144Z"/>
	<path fill="#158D2E" d="M103.987 413.921C105.073 413.918 106.153 413.944 107.213 414.209C111.015 415.159 114.576 417.437 116.493 420.911C118.411 424.388 118.801 429.162 117.654 432.947C116.012 438.367 112.056 441.124 107.335 443.647C105.644 444.197 103.922 444.643 102.208 445.115L102.033 444.985C99.2213 442.937 97.0085 441.065 95.5064 437.855C93.2819 433.103 93.2575 427.238 95.2476 422.396C97.0246 418.072 99.806 415.772 103.987 413.921Z"/>
	<path fill="#158D2E" d="M91.7142 463.543C92.5016 463.529 92.447 463.515 93.3533 463.579C96.3336 463.789 99.5543 465.157 101.391 467.576C104.325 471.438 103.722 476.248 103.258 480.734C101.625 483.184 100.196 484.742 97.4379 485.892C95.6389 485.903 93.5597 486.01 91.8333 485.498C89.1946 484.716 86.6808 482.528 85.3793 480.127C83.887 477.316 83.6115 474.017 84.617 470.997C85.8562 467.39 88.3695 465.145 91.7142 463.543Z"/>
	<path fill="#158D2E" d="M300.189 193.559C303.358 193.51 307.575 194.179 309.816 196.72C310.792 197.826 311.23 199.498 311.223 200.946C311.2 206.087 307.766 208.558 304.401 211.746C302.335 211.546 299.589 211.142 297.72 210.244C295.435 209.147 293.423 206.922 292.649 204.505C292.017 202.53 292.1 200.42 293.115 198.588C294.728 195.674 297.15 194.556 300.189 193.559Z"/>
	<path fill="#158D2E" d="M263.869 329.814C264.874 329.768 265.761 329.76 266.755 329.965C268.609 330.347 270.556 331.886 271.45 333.535C272.422 335.329 272.449 337.508 271.825 339.423C270.433 343.691 267.151 345.176 263.472 347.156C262.844 347.293 261.943 347.552 261.278 347.511C258.13 347.316 256.452 344.645 254.719 342.364L254.668 334.953L257.914 330.529C259.867 330.115 261.882 330.006 263.869 329.814Z"/>
	<path fill="#158D2E" d="M233.938 358.032C234.429 357.998 234.919 357.955 235.411 357.957C238.983 357.97 241.374 360.621 243.703 362.962C243.768 365.275 244.108 368.009 243.25 370.194C242.047 373.262 238.437 374.146 235.642 375.183C235.032 375.298 234.495 375.422 233.863 375.43C230.719 375.472 228.42 372.732 226.367 370.714C226.559 368.551 226.617 366.117 227.197 364.023C228.132 360.643 231.081 359.457 233.938 358.032Z"/>
	<path fill="#158D2E" d="M270.133 218.206C273.286 219.249 277.587 220.827 279.627 223.549C280.568 224.804 280.873 226.054 280.602 227.612C280.038 230.862 275.775 233.592 273.179 235.115C271.405 235.191 269.379 235.112 267.648 234.728C265.51 234.254 263.58 232.88 262.56 230.921C261.632 229.139 261.658 227.037 262.344 225.18C263.693 221.53 266.754 219.725 270.133 218.206Z"/>
	<path fill="#158D2E" d="M86.184 504.662C86.3926 504.66 86.6011 504.65 86.8097 504.654C90.0287 504.709 93.0691 505.239 95.3556 507.707C96.8328 509.301 97.5058 511.392 97.3668 513.551C97.1225 517.344 94.974 520.08 92.2619 522.529C91.4117 522.615 91.3312 522.654 90.6113 522.645C88.0365 522.612 85.9504 521.685 84.1999 519.775C82.4241 517.837 81.826 515.147 81.9154 512.583C82.0386 509.053 83.7517 507.035 86.184 504.662Z"/>
	<path fill="#158D2E" d="M289.527 307.97C290.671 307.986 291.829 308.174 292.943 308.429C295.063 308.913 296.97 310.209 298.099 312.088C299.171 313.873 299.346 315.999 298.749 317.978C297.754 321.271 295.23 322.64 292.342 324.099C291.568 324.071 290.797 324.035 290.03 323.912C287.553 323.514 284.945 322.097 283.583 319.937C282.491 318.206 282.349 316.197 282.924 314.259C283.9 310.963 286.703 309.498 289.527 307.97Z"/>
	<path fill="#3CB034" d="M349.512 35.816C350.533 31.8558 353.054 29.1322 356.586 27.1343C375.329 16.5313 417.684 26.4739 438.08 32.6117C487.203 47.3937 535.014 70.6823 577.753 98.8932C586.032 104.358 594.755 109.574 602.119 116.251L603.324 115.728C594.309 106.8 585.167 97.8359 575.474 89.6424C568.618 83.8477 561.272 78.6389 554.307 72.974C549.803 70.2713 545.572 66.8967 541.312 63.8183C575.505 69.1871 621.742 77.8194 650.393 98.0579C657.77 103.365 664.255 109.813 669.605 117.16C679.822 131.079 683.682 147.075 691.769 161.96C697.464 172.44 704.682 181.869 711.322 191.737C722.757 208.734 732.661 228.385 737.326 248.369C739.081 255.888 740.658 265.035 739.485 272.742C739.366 273.521 739.357 273.506 739.193 274.151C738.513 278.16 735.9 280.934 732.619 283.173C723.376 289.48 710.99 291.418 700.175 293.364C651.069 302.198 574.893 302.231 526.221 292.033C516.409 289.977 506.678 287.788 497.387 283.935C483.039 277.985 460.266 262.904 446.851 260.738C443.108 260.133 438.869 260.696 435.625 262.735C430.141 266.185 428.286 272.702 427.079 278.678C434.302 273.985 439.74 271.526 448.574 273.408C464.937 276.893 478.959 288.096 494.534 293.942C534.162 308.815 591.742 310.611 633.677 309.122C660.696 308.163 689.733 306.777 715.85 299.399C719.024 298.502 727.171 294.948 729.391 297.833C729.314 303.55 724.839 308.584 721.199 312.642C686.753 350.039 619.037 363.734 570.408 365.775C548.277 366.704 525.637 366.923 503.752 363.042C469.152 356.907 432.067 336.605 406.336 312.93C398.442 305.667 391.548 297.372 383.676 290.159C387.004 299.36 390.453 310.462 395.855 318.66C408.296 337.411 420.986 344.876 439.809 356.359C411.492 364.714 389.758 381.687 366.492 399.044C358.972 404.654 351.162 411.869 342.244 415.073C333.002 409.773 324.051 402.935 315.64 396.359C320.743 393.752 325.481 390.977 330.143 387.64C332.307 386.09 334.798 383.487 337.087 382.302C351.904 369.125 362.598 353.978 363.871 333.598C364.281 327.021 363.953 320.166 362.628 313.701C361.654 319.276 360.757 324.831 358.869 330.188C352.802 347.404 338.423 363.149 323.703 373.521C314.099 380.288 301.521 388.146 289.593 389.647C282.472 390.543 268.775 386.794 263.042 389.585C260.308 389.114 257.848 387.931 255.312 386.848C258.878 387.021 262.788 387.508 266.324 386.915C269.657 386.356 273.083 384.626 276.209 383.361C289.387 378.03 300.568 371.753 312.127 363.51C325.788 353.768 346.047 338.011 348.833 320.419C350.866 307.578 345.602 295.17 338.225 284.918C339.471 285.515 340.7 286.146 341.911 286.812C352.577 292.775 360.179 304.223 363.349 315.788C364.199 314.886 364.943 313.957 365.638 312.928C374.261 300.148 371.515 275.376 366.438 261.611C364.88 257.388 362.602 253.357 360.674 249.29C356.503 240.491 352.919 231.402 351.043 221.818C348.807 210.395 346.797 198.679 345.642 187.089C344.479 175.428 344.145 163.735 341.971 152.186C339.478 138.943 332.806 131.805 321.919 124.355C333.139 119.678 344.347 115.945 356.205 113.242C359.374 127.455 357.357 140.378 355 154.464C349.758 185.782 352.564 218.053 368.68 245.987C373.022 253.513 378.972 259.971 383.337 267.552C380.356 257.426 376.345 247.574 373.308 237.438C367.303 217.391 365.388 195.478 366.671 174.628C367.365 163.34 371.353 152.865 373.665 141.9C375.894 131.329 376.095 103.874 373.508 93.5608C370.552 81.7765 360.381 69.0517 354.942 57.7291C352.398 52.4337 347.425 41.7784 349.512 35.816Z"/>
	<path fill="#158D2E" d="M423.452 134.296C436.158 142.991 454.267 142.31 468.729 139.524C484.823 136.424 497.655 127.636 512.521 121.631C536.554 111.923 569.689 113.966 591.443 128.354C603.857 136.564 611.895 148.448 620.302 160.381C623.358 172.22 625.015 184.22 624.506 196.467C623.728 215.208 618.88 233.328 604.537 246.262C588.128 261.058 562.865 272.946 540.469 271.571C518.732 270.237 497.409 260.657 483.089 244.117C467.027 225.565 467.198 203.136 468.847 180.163C451.686 166.569 424.066 149.418 415.515 129.006C418.076 130.882 420.582 132.917 423.452 134.296Z"/>
	<path fill="#012630" d="M539.338 130.249C575.587 125.906 608.436 151.923 612.508 188.205C616.58 224.486 590.318 257.138 554.007 260.94C518.078 264.701 485.843 238.774 481.814 202.874C477.784 166.975 503.469 134.547 539.338 130.249Z"/>
	<defs>
		<linearGradient id="gradient_3" gradientUnits="userSpaceOnUse" x1="520.52081" y1="242.43111" x2="573.16827" y2="148.78012">
			<stop offset="0" stop-color="#259D30"/>
			<stop offset="1" stop-color="#50BF38"/>
		</linearGradient>
	</defs>
	<path fill="url(#gradient_3)" d="M541.113 140.252C571.855 136.969 599.406 159.309 602.546 190.066C605.687 220.823 583.221 248.27 552.449 251.269C521.879 254.248 494.649 231.959 491.528 201.403C488.408 170.846 510.57 143.513 541.113 140.252Z"/>
	<path fill="#012630" d="M553.993 169.244C570.332 166.909 585.468 178.264 587.797 194.603C590.127 210.942 578.768 226.075 562.428 228.401C546.095 230.725 530.969 219.371 528.641 203.038C526.312 186.706 537.661 171.577 553.993 169.244Z"/>
	<path fill="#FEFEFE" d="M565.274 177.984C570.129 177.377 574.569 180.792 575.226 185.641C575.884 190.49 572.515 194.965 567.673 195.673C564.496 196.138 561.314 194.86 559.34 192.327C557.366 189.794 556.906 186.396 558.133 183.429C559.361 180.462 562.087 178.382 565.274 177.984Z"/>
	<path fill="#158D2E" d="M349.512 35.816C349.645 35.7587 349.789 35.7207 349.912 35.644C352.219 34.2075 352.368 30.2285 355.472 29.0361C356.53 29.6352 357.047 30.0763 357.332 31.3284C357.37 31.4946 357.454 32.5018 357.472 32.6361C358.124 37.4244 366.257 46.7116 369.078 51.2965C377.972 65.7548 386.937 81.9115 389.427 98.8699C391.349 111.963 391.002 126.596 388.361 139.521C385.901 151.561 382.288 163.072 380.838 175.341C374.307 230.607 399.548 291.682 444.995 324.281C453.511 330.39 464.823 335.533 474.947 338.227C479.432 339.42 484.34 339.669 488.935 340.379C533.699 347.293 588.391 342.968 632.944 335.296C649.743 332.403 666.934 328.944 683.171 323.714C694.065 320.204 704.807 315.313 715.868 312.459C717.976 311.915 719.155 311.871 721.199 312.642C686.753 350.039 619.037 363.734 570.408 365.775C548.277 366.704 525.637 366.923 503.752 363.042C469.152 356.907 432.067 336.605 406.336 312.93C398.442 305.667 391.548 297.372 383.676 290.159C387.004 299.36 390.453 310.462 395.855 318.66C408.296 337.411 420.986 344.876 439.809 356.359C411.492 364.714 389.758 381.687 366.492 399.044C358.972 404.654 351.162 411.869 342.244 415.073C333.002 409.773 324.051 402.935 315.64 396.359C320.743 393.752 325.481 390.977 330.143 387.64C332.307 386.09 334.798 383.487 337.087 382.302C351.904 369.125 362.598 353.978 363.871 333.598C364.281 327.021 363.953 320.166 362.628 313.701C361.654 319.276 360.757 324.831 358.869 330.188C352.802 347.404 338.423 363.149 323.703 373.521C314.099 380.288 301.521 388.146 289.593 389.647C282.472 390.543 268.775 386.794 263.042 389.585C260.308 389.114 257.848 387.931 255.312 386.848C258.878 387.021 262.788 387.508 266.324 386.915C269.657 386.356 273.083 384.626 276.209 383.361C289.387 378.03 300.568 371.753 312.127 363.51C325.788 353.768 346.047 338.011 348.833 320.419C350.866 307.578 345.602 295.17 338.225 284.918C339.471 285.515 340.7 286.146 341.911 286.812C352.577 292.775 360.179 304.223 363.349 315.788C364.199 314.886 364.943 313.957 365.638 312.928C374.261 300.148 371.515 275.376 366.438 261.611C364.88 257.388 362.602 253.357 360.674 249.29C356.503 240.491 352.919 231.402 351.043 221.818C348.807 210.395 346.797 198.679 345.642 187.089C344.479 175.428 344.145 163.735 341.971 152.186C339.478 138.943 332.806 131.805 321.919 124.355C333.139 119.678 344.347 115.945 356.205 113.242C359.374 127.455 357.357 140.378 355 154.464C349.758 185.782 352.564 218.053 368.68 245.987C373.022 253.513 378.972 259.971 383.337 267.552C380.356 257.426 376.345 247.574 373.308 237.438C367.303 217.391 365.388 195.478 366.671 174.628C367.365 163.34 371.353 152.865 373.665 141.9C375.894 131.329 376.095 103.874 373.508 93.5608C370.552 81.7765 360.381 69.0517 354.942 57.7291C352.398 52.4337 347.425 41.7784 349.512 35.816Z"/>
	<path fill="#00672C" d="M395.855 318.66C408.296 337.411 420.986 344.876 439.809 356.359C411.492 364.714 389.758 381.687 366.492 399.044C358.972 404.654 351.162 411.869 342.244 415.073C333.002 409.773 324.051 402.935 315.64 396.359C320.743 393.752 325.481 390.977 330.143 387.64C332.307 386.09 334.798 383.487 337.087 382.302C338.188 382.911 338.872 382.899 340.095 382.792C364.855 380.612 387.867 361.741 393.494 337.247C394.774 331.675 392.184 322.949 395.855 318.66Z"/>
	<path fill="#59C23A" d="M541.312 63.8183C575.505 69.1871 621.742 77.8194 650.393 98.0579C657.77 103.365 664.255 109.813 669.605 117.16C679.822 131.079 683.682 147.075 691.769 161.96C697.464 172.44 704.682 181.869 711.322 191.737C722.757 208.734 732.661 228.385 737.326 248.369C739.081 255.888 740.658 265.035 739.485 272.742C739.366 273.521 739.357 273.506 739.193 274.151L738.433 273.841C738.686 272.453 738.979 271.36 738.732 269.95C736.701 269.439 734.572 268.655 732.476 269.059L731.89 269.964C732.101 270.882 732.212 271.373 732.854 272.103C733.004 272.273 733.173 272.424 733.333 272.584L733.311 273.25C732.135 272.306 732.044 272.025 731.588 270.586C730.565 267.36 730.313 263.611 729.681 260.269C728.067 251.744 725.657 242.98 721.739 235.209C715.835 231.204 709.934 227.046 703.714 223.545C693.919 218.033 683.685 213.34 674.254 207.189C654.052 194.012 637.477 177.075 620.302 160.381C611.895 148.448 603.857 136.564 591.443 128.354C569.689 113.966 536.554 111.923 512.521 121.631C497.655 127.636 484.823 136.424 468.729 139.524C454.267 142.31 436.158 142.991 423.452 134.296C431.949 134.287 439.963 134.537 448.343 132.678C486.519 124.21 507.774 94.9561 551.087 101.127C561.504 102.611 571.712 105.794 581.902 108.255C583.562 108.655 585.22 108.742 586.802 109.466C593.699 112.622 601.275 120.631 608.34 122.173C609.564 122.44 609.068 122.509 610.077 121.858C609.988 121.516 609.962 121.152 609.81 120.834C608.658 118.412 604.273 114.973 602.227 112.974C594.165 105.096 562.396 74.4988 554.307 72.974C549.803 70.2713 545.572 66.8967 541.312 63.8183Z"/>
	<path fill="#158D2E" d="M630.665 97.5887C632.443 97.5146 635.021 99.7229 636.52 100.696C637.494 102.82 638.602 104.876 639.688 106.944C638.007 111.736 636.633 113.575 632.406 116.286C629.371 116.165 626.611 115.836 623.748 114.786C622.436 113.607 621.462 111.981 620.69 110.416C619.543 108.09 619.314 105.353 620.243 102.902C620.968 100.99 622.501 99.2782 624.431 98.5326C627.694 97.2725 630.3 98.749 633.365 99.8948C633.079 99.0092 631.444 98.1595 630.665 97.5887Z"/>
	<path fill="#158D2E" d="M645.728 125.777L652.43 125.909C654.663 128.073 656.515 130.685 658.444 133.121C658.072 135.138 657.697 137.451 656.745 139.281C655.333 141.995 653.001 142.69 650.255 143.619C648.785 143.703 647.235 143.84 645.775 143.61C643.379 143.234 640.851 142.013 639.414 140.012C638.219 138.349 637.981 136.273 638.45 134.31C639.412 130.283 642.471 127.932 645.728 125.777Z"/>
	<path fill="#158D2E" d="M602.119 116.251L603.324 115.728C606.092 118.009 608.485 120.587 610.933 123.199C607.888 121.046 604.666 118.996 602.119 116.251Z"/>
	<path fill="#158D2E" d="M684.691 239.563C684.33 236.295 684.083 232.796 686.28 230.056C687.418 228.637 689.073 227.929 690.867 227.825C694.89 227.592 698.802 229.938 701.628 232.598C704.636 235.43 706.575 238.506 707.658 242.486L707.873 243.08C708.446 243.456 708.904 243.668 709.575 243.814C710.15 243.939 711.028 244.014 711.546 244.284C712.596 244.832 712.975 245.469 713.307 246.559C713.99 248.8 713.492 251.544 712.387 253.569C709.807 258.296 703.907 260.961 698.884 262.18C693.777 263.421 688.845 262.692 684.4 259.845C678.259 255.913 676.247 250.46 674.748 243.708C676.083 242.573 677.492 241.528 678.965 240.578C681.206 239.156 682.205 239.039 684.691 239.563Z"/>
	<path fill="#012630" d="M684.691 239.563C684.33 236.295 684.083 232.796 686.28 230.056C687.418 228.637 689.073 227.929 690.867 227.825C694.89 227.592 698.802 229.938 701.628 232.598C704.636 235.43 706.575 238.506 707.658 242.486C707.474 243.52 707.281 244.566 706.921 245.556C706.11 247.789 704.4 249.901 702.201 250.883C700.045 251.846 697.448 251.524 695.311 250.676C690.313 248.693 686.857 244.31 684.691 239.563Z"/>
	<path fill="#158D2E" d="M427.636 53.1784C429.369 53.7318 431.435 54.6729 432.969 55.6471C434.966 56.9164 436.45 58.9639 436.895 61.3083C437.264 63.2815 436.825 65.3204 435.675 66.9661C433.415 70.2419 430.367 70.5524 426.744 71.133C425.581 71.2749 424.275 71.4299 423.145 71.0527C420.978 70.3295 418.825 68.4956 417.9 66.4002C417.083 64.5485 417.184 62.2194 417.942 60.3635C419.724 56.005 423.63 54.8074 427.636 53.1784Z"/>
	<path fill="#158D2E" d="M456.062 68.6613C457.893 68.5101 459.886 68.2317 461.718 68.3812C463.827 68.5533 466.2 70.1865 467.418 71.8796C468.818 73.8255 469.247 76.2331 468.7 78.5564C467.782 82.4545 465.251 84.0778 462.089 86.068C460.393 86.5277 458.67 86.2414 457.033 85.6879C454.298 84.7625 452.163 83.0141 450.963 80.3526C449.976 78.1645 449.846 75.6893 450.768 73.4579C451.873 70.7856 453.498 69.7871 456.062 68.6613Z"/>
	<path fill="#158D2E" d="M421.94 165.602C423.186 165.52 424.448 165.435 425.677 165.708C428.32 166.297 431.108 168.245 432.553 170.533C433.773 172.464 434.215 174.874 433.537 177.082C432.69 179.835 430.246 181.045 427.912 182.395C426.425 182.569 424.956 182.631 423.503 182.22C420.51 181.373 417.565 179.739 416.137 176.855C415.265 175.119 415.139 173.103 415.787 171.271C416.847 168.252 419.226 166.953 421.94 165.602Z"/>
	<path fill="#158D2E" d="M402.991 146.559C404.541 146.469 406.106 146.372 407.623 146.777C409.846 147.37 412.181 148.886 413.326 150.924C414.374 152.788 414.429 154.983 413.773 156.987C412.724 160.187 409.961 161.506 407.224 163.022C405.038 163.232 401.952 163.615 400.023 162.359C396.799 160.261 396.48 154.956 395.757 151.524C398.075 149.512 400.234 147.946 402.991 146.559Z"/>
	<path fill="#158D2E" d="M403.705 73.7699C407.238 73.6373 411.106 73.6519 413.845 76.2607C415.1 77.4567 415.784 78.9292 415.791 80.6785C415.806 84.1911 413.233 87.1152 410.879 89.4307C410.068 89.5364 409.271 89.592 408.453 89.5916C405.498 89.5901 402.809 89.1345 400.686 86.8973C399.3 85.4362 398.665 83.6402 398.824 81.6327C399.088 78.3144 401.288 75.8261 403.705 73.7699Z"/>
	<path fill="#158D2E" d="M392.371 49.5108C393.178 49.499 393.985 49.5021 394.792 49.5202C397.782 49.5976 401.287 49.905 403.279 52.4686C404.182 53.6321 404.418 55.0361 404.148 56.4562C403.38 60.4896 400.394 62.1857 397.291 64.3989L395.966 65.0428C393.365 64.7167 390.742 64.0347 389.027 61.8949C387.717 60.261 387.096 57.8222 387.42 55.7564C387.899 52.7007 389.965 51.1429 392.371 49.5108Z"/>
	<path fill="#158D2E" d="M395.502 178.672C397.375 178.576 399.599 178.251 401.365 179.039C403.459 179.974 404.827 182.233 405.393 184.382C406.101 187.07 405.609 189.741 404.155 192.094C402.954 194.038 401.678 194.146 399.608 194.598C398.547 194.565 397.466 194.542 396.415 194.39C394.371 194.095 392.554 192.834 391.417 191.128C390.225 189.338 389.984 187.232 390.408 185.154C391.046 182.017 392.971 180.407 395.502 178.672Z"/>
	<path fill="#158D2E" d="M449.408 177.074C450.629 177.184 451.86 177.357 453.031 177.738C454.675 178.273 456.116 179.569 456.84 181.14C457.726 183.063 457.517 185.252 456.746 187.176C455.248 190.917 452.467 192.676 448.867 194.124C447.87 194.02 447.136 193.857 446.22 193.404C443.344 191.982 442.13 188.019 441.127 185.22C443.204 180.931 444.907 178.831 449.408 177.074Z"/>
	<path fill="#158D2E" d="M430.786 90.2225C432.062 90.139 433.544 90.0497 434.803 90.3105C437.04 90.7737 439.088 92.6002 440.168 94.56C441.186 96.3796 441.386 98.5453 440.718 100.52C439.826 103.206 438.026 104.173 435.603 105.357C431.733 104.483 427.952 103.681 425.652 100.15C424.727 98.7297 424.426 97.1645 424.991 95.518C425.91 92.8411 428.36 91.3287 430.786 90.2225Z"/>
	<path fill="#158D2E" d="M423.689 194.502C425.228 194.345 427.09 194.226 428.594 194.63C430.808 195.226 432.787 196.918 433.829 198.944C434.709 200.655 434.694 202.651 433.962 204.412C432.958 206.823 431.15 207.401 428.885 208.34C428.287 208.488 427.686 208.632 427.077 208.725C424.976 209.045 422.323 208.496 420.747 206.988C419.468 205.765 419.071 204.137 419.119 202.431C419.22 198.92 421.3 196.813 423.689 194.502Z"/>
	<path fill="#016E5B" d="M593.422 941.965C594.071 941.865 594.618 941.926 595.27 941.978C595.511 942.446 595.545 942.443 595.658 943.051C596.007 944.922 595.088 947.541 594.612 949.358C591.848 959.898 587.369 968.337 580.139 976.554C572.494 985.244 562.338 994.283 551.606 998.89C546.472 1001.09 540.944 1002.53 536.22 1005.59C527.445 1011.27 523.987 1021.37 512.107 1021.75C510.342 1021.81 509.234 1021.46 507.937 1020.2C507.09 1018.35 507.209 1016.93 507.665 1014.99C510.054 1004.85 517.157 994.234 525.704 988.255C528.341 986.41 531.373 985.25 534.046 983.481C535.861 982.28 538.412 980.668 538.896 978.399L538.137 977.846C534.277 977.825 529.963 979.971 526.399 981.395C519.816 984.026 512.581 987.298 507.446 992.332C502.425 997.256 496.292 1010.6 490.894 1012.38C488.372 1013.22 485.547 1013.59 483.111 1012.28C481.143 1011.23 479.773 1009.17 479.191 1007.05C477.765 1001.85 480.24 996.998 482.78 992.624C489.719 980.797 500.722 976.779 511.416 969.486C495.563 970.602 480.477 977.043 472.247 991.274C470.435 994.407 468.365 1000.24 465.74 1002.53C465.101 1003.09 464.598 1002.87 463.809 1002.85C462.642 1002.15 461.897 1001.55 461.184 1000.37C459.589 997.723 459.962 993.615 460.639 990.741C463.076 980.396 471.923 970.81 480.726 965.316C505.034 950.142 531.841 957.396 557.771 963.236C553.041 959.092 546.76 955.375 541.206 952.426C547.571 950.827 553.968 949.097 560.424 947.914C571.467 945.89 582.471 944.562 593.422 941.965Z"/>
	<path fill="#3E5E66" d="M867.545 560.399C860.285 580.527 839.532 600.293 822.388 612.696C814.229 618.598 806.989 622.296 800.237 629.935C795.383 635.428 783.265 641.962 776.251 644.096C773.938 644.8 771.445 644.754 769.208 645.722C764.44 647.788 759.901 650.411 755.131 652.51C743.319 657.706 722.692 664.632 709.895 665.403C714.51 663.473 719.74 662.829 724.599 661.678C730.312 660.325 735.834 658.634 741.373 656.696C750.422 653.529 758.672 649.29 767.438 645.531C776.049 641.838 784.538 639.496 792.618 634.419C797.975 631.053 800.301 626.615 804.884 622.969C807.937 620.54 811.541 618.569 814.803 616.404C820.01 612.888 825.1 609.204 830.068 605.358C842.116 595.888 855.808 580.576 863.167 567.096C868.281 557.728 871.184 547.261 874.442 537.176L888.216 494.48C893.737 477.541 901.197 459.812 905.451 442.637C906.974 436.486 907.636 429.57 908.13 423.25C908.619 416.978 908.794 409.895 906.883 403.82C905.965 400.9 904.567 398.036 903.95 395.037C903.335 392.049 903.381 373.635 903.788 370.143C906.851 375.293 905.252 390.256 905.682 396.515C905.908 399.787 908.673 402.562 908.991 405.8C910.181 417.919 908.337 432.373 906.538 444.35C906.628 446.116 906.609 447.951 907.012 449.672C904.034 457.853 901.758 466.255 899.142 474.554C893.748 491.664 888.416 508.8 882.627 525.779C881.3 529.671 879.486 533.384 878.1 537.257C876.449 541.872 875.212 546.63 873.513 551.229C872.369 554.326 870.21 557.896 869.522 561.034L868.787 559.856L867.545 560.399Z"/>
	<path fill="#012630" d="M867.545 560.399C870.911 552.708 873.108 545.235 875.747 537.302C877.43 532.243 879.661 527.376 881.305 522.301C884.242 513.235 886.379 503.923 889.377 494.858C893.507 482.369 898.04 470.009 902.18 457.519C903.637 453.121 905.442 448.855 906.538 444.35C906.628 446.116 906.609 447.951 907.012 449.672C904.034 457.853 901.758 466.255 899.142 474.554C893.748 491.664 888.416 508.8 882.627 525.779C881.3 529.671 879.486 533.384 878.1 537.257C876.449 541.872 875.212 546.63 873.513 551.229C872.369 554.326 870.21 557.896 869.522 561.034L868.787 559.856L867.545 560.399Z"/>
</svg>
